<svg width="24" height="24" viewBox="0 0 24 24" fill="none" xmlns="http://www.w3.org/2000/svg">
<path d="M12 22C17.5228 22 22 17.5228 22 12C22 6.47715 17.5228 2 12 2C6.47715 2 2 6.47715 2 12C2 17.5228 6.47715 22 12 22Z" fill="#F3F4F6"/>
<path fill-rule="evenodd" clip-rule="evenodd" d="M17.8544 9.26738C18.4988 9.26738 19 9.79144 19 10.4652V12.9358C19 13.6096 18.4988 14.1337 17.8544 14.1337C17.2099 14.1337 16.7087 13.6096 16.7087 12.9358V10.4652C16.7087 9.79144 17.2099 9.26738 17.8544 9.26738ZM14.9903 10.877C15.6347 10.877 16.1359 11.4011 16.1359 12.0749V16.3048C16.1359 16.9786 15.6347 17.5027 14.9903 17.5027C14.3459 17.5027 13.8447 16.9786 13.8447 16.3048V12.0749C13.8447 11.4011 14.3459 10.877 14.9903 10.877ZM11.983 6.01069C12.6274 6.01069 13.1286 6.53476 13.1286 7.20856V17.8021C13.1286 18.4759 12.6274 19 11.983 19C11.3386 19 10.8374 18.4759 10.8374 17.8021V7.20856C10.8374 6.53476 11.3386 6.01069 11.983 6.01069ZM9.11892 5C9.76334 5 10.2646 5.52406 10.2646 6.19786V12.0374C10.2646 12.7112 9.76334 13.2353 9.11892 13.2353C8.4745 13.2353 7.97329 12.7112 7.97329 12.0374V6.19786C7.97329 5.5615 8.4745 5 9.11892 5ZM6.11164 9.15508C6.75605 9.15508 7.25727 9.67914 7.25727 10.3529V13.3476C7.25727 14.0214 6.75605 14.5455 6.14744 14.5455C5.50302 14.5455 5.0018 14.0214 5.0018 13.385V13.3476V10.3529C4.966 9.67914 5.46722 9.15508 6.11164 9.15508Z" fill="url(#paint0_linear_504_142)"/>
<defs>
<linearGradient id="paint0_linear_504_142" x1="17.1191" y1="15.9436" x2="6.26909" y2="8.12403" gradientUnits="userSpaceOnUse">
<stop offset="0.04" stop-color="#11CED0"/>
<stop offset="0.43" stop-color="#4053C1"/>
<stop offset="0.69" stop-color="#7D33D6"/>
<stop offset="0.95" stop-color="#CF61DC"/>
</linearGradient>
</defs>
</svg>
