<svg width="24" height="24" viewBox="0 0 24 24" fill="none" xmlns="http://www.w3.org/2000/svg">
<path fill-rule="evenodd" clip-rule="evenodd" d="M12 20C16.4183 20 20 16.4183 20 12C20 7.58172 16.4183 4 12 4C7.58172 4 4 7.58172 4 12C4 16.4183 7.58172 20 12 20ZM11.6985 16.6667L10.8575 16.4507L11.201 15.033C11.0155 14.9856 10.7152 14.9054 10.5308 14.8539L10.1861 16.2782L9.34601 16.0623L9.69406 14.6227C9.49764 14.5709 9.29812 14.5158 9.09449 14.4632L8 14.1822L8.41755 13.1904C8.41755 13.1904 9.03723 13.3602 9.02884 13.3476C9.26694 13.4083 9.37257 13.2484 9.41428 13.1418L9.96427 10.8702L10.0532 10.8929C10.0196 10.8791 9.9892 10.8702 9.96572 10.864L10.3581 9.24244C10.3684 9.05838 10.3069 8.82616 9.9662 8.73856C9.97939 8.72945 9.35537 8.58212 9.35537 8.58212L9.5791 7.6567L10.739 7.95507L10.738 7.95951C10.9124 8.00417 11.092 8.04661 11.2751 8.08956L11.6197 6.66667L12.4603 6.8826L12.1226 8.27759C12.3482 8.33064 12.5753 8.38419 12.7964 8.44094L13.1317 7.05506L13.9728 7.27095L13.6283 8.69437C14.6902 9.07119 15.4668 9.63608 15.3142 10.6868C15.2038 11.4561 14.7898 11.8284 14.2403 11.9589C14.9949 12.3636 15.3789 12.9843 15.0131 14.0602C14.5592 15.3965 13.4807 15.5093 12.0466 15.2297L11.6985 16.6667ZM13.309 10.7285C13.5333 9.68906 12.1448 9.45741 11.7136 9.33333L11.3333 11.0946C11.7645 11.2187 13.0936 11.725 13.309 10.7285ZM13.3055 13.4202C13.5824 12.398 11.7186 12.1335 11.1375 12L10.6667 13.7377C11.2479 13.8706 13.0405 14.4005 13.3055 13.4202Z" fill="#65647E"/>
</svg>
