<svg width="24" height="24" viewBox="0 0 24 24" fill="none" xmlns="http://www.w3.org/2000/svg">
<path d="M21.6986 14.419C20.363 19.7762 14.937 23.0365 9.57919 21.7006C4.22361 20.365 0.963327 14.9387 2.29949 9.58197C3.63447 4.22419 9.06044 0.963662 14.4166 2.29923C19.7741 3.63481 23.0341 9.06171 21.6984 14.4191L21.6985 14.419H21.6986Z" fill="#F7931A"/>
<path d="M16.4084 10.5752C16.6074 9.24447 15.5943 8.52912 14.2088 8.05191L14.6583 6.24925L13.5609 5.97582L13.1234 7.73102C12.8349 7.65907 12.5387 7.59128 12.2442 7.52407L12.6849 5.75729L11.5883 5.48386L11.1386 7.28593C10.8999 7.23158 10.6654 7.17786 10.4379 7.12126L10.4392 7.11559L8.92593 6.7377L8.63402 7.90973C8.63402 7.90973 9.44815 8.09635 9.431 8.10783C9.87536 8.21874 9.95571 8.51289 9.94237 8.74605L9.43041 10.7997C9.46101 10.8075 9.5007 10.8187 9.54449 10.8363C9.50788 10.8272 9.46893 10.8173 9.4285 10.8076L8.71091 13.6845C8.6566 13.8195 8.51876 14.0221 8.20809 13.9452C8.21909 13.9611 7.41053 13.7461 7.41053 13.7461L6.86572 15.0022L8.29373 15.3582C8.55938 15.4248 8.81971 15.4945 9.07608 15.5601L8.622 17.3834L9.71806 17.6568L10.1677 15.8529C10.4672 15.9342 10.7578 16.0091 11.0422 16.0798L10.5941 17.8753L11.6915 18.1487L12.1455 16.3288C14.0167 16.6829 15.4237 16.5402 16.0159 14.8477C16.4931 13.485 15.9921 12.699 15.0077 12.1865C15.7247 12.0211 16.2648 11.5496 16.4088 10.5754L16.4084 10.5752L16.4084 10.5752ZM13.9012 14.0909C13.5621 15.4536 11.2678 14.717 10.524 14.5323L11.1266 12.1167C11.8704 12.3023 14.2557 12.6698 13.9013 14.0909H13.9012ZM14.2406 10.5555C13.9312 11.795 12.0217 11.1653 11.4022 11.0109L11.9486 8.82005C12.568 8.97446 14.5629 9.26265 14.2407 10.5555H14.2406Z" fill="white"/>
</svg>
