<svg width="36" height="36" viewBox="0 0 36 36" fill="none" xmlns="http://www.w3.org/2000/svg">
<path d="M18 36C27.9411 36 36 27.9411 36 18C36 8.05887 27.9411 0 18 0C8.05888 0 0 8.05887 0 18C0 27.9411 8.05888 36 18 36Z" fill="#F3F4F6"/>
<path fill-rule="evenodd" clip-rule="evenodd" d="M28.0361 13.3155C29.1408 13.3155 30 14.2139 30 15.369V19.6043C30 20.7594 29.1408 21.6578 28.0361 21.6578C26.9313 21.6578 26.0721 20.7594 26.0721 19.6043V15.369C26.0721 14.2139 26.9313 13.3155 28.0361 13.3155ZM23.1262 16.0749C24.2309 16.0749 25.0901 16.9733 25.0901 18.1283V25.3797C25.0901 26.5348 24.2309 27.4332 23.1262 27.4332C22.0215 27.4332 21.1623 26.5348 21.1623 25.3797V18.1283C21.1623 16.9733 22.0215 16.0749 23.1262 16.0749ZM17.9709 7.73262C19.0756 7.73262 19.9348 8.63102 19.9348 9.7861V27.9465C19.9348 29.1016 19.0756 30 17.9709 30C16.8661 30 16.0069 29.1016 16.0069 27.9465V9.7861C16.0069 8.63102 16.8661 7.73262 17.9709 7.73262ZM13.061 6C14.1657 6 15.0249 6.89839 15.0249 8.05348V18.0642C15.0249 19.2193 14.1657 20.1176 13.061 20.1176C11.9563 20.1176 11.0971 19.2193 11.0971 18.0642V8.05348C11.0971 6.96257 11.9563 6 13.061 6ZM7.90566 13.123C9.01038 13.123 9.8696 14.0214 9.8696 15.1765V20.3102C9.8696 21.4652 9.01038 22.3636 7.96704 22.3636C6.86232 22.3636 6.00309 21.4652 6.00309 20.3743V20.3102V15.1765C5.94172 14.0214 6.80094 13.123 7.90566 13.123Z" fill="url(#paint0_linear_1609_15428)"/>
<defs>
<linearGradient id="paint0_linear_1609_15428" x1="10.125" y1="6" x2="32.4194" y2="19.5085" gradientUnits="userSpaceOnUse">
<stop stop-color="#A600FB"/>
<stop offset="0.260417" stop-color="#6F06FC"/>
<stop offset="0.625" stop-color="#4959F5"/>
<stop offset="0.828125" stop-color="#2E8DDF"/>
<stop offset="1" stop-color="#12C1C9"/>
</linearGradient>
</defs>
</svg>
