<svg width="8" height="5" viewBox="0 0 8 5" fill="none" xmlns="http://www.w3.org/2000/svg">
  <path d="M4.47144 0.528656C4.34642 0.403676 4.17689 0.333466 4.00011 0.333466C3.82333 0.333466 3.65379 0.403676 3.52878 0.528656L0.195442 3.86199C0.0740033 3.98772 0.00680704 4.15612 0.00832598 4.33092C0.00984493 4.50572 0.0799575 4.67293 0.203563 4.79653C0.327168 4.92014 0.494377 4.99025 0.669175 4.99177C0.843972 4.99329 1.01237 4.92609 1.13811 4.80465L4.00011 1.94266L6.86211 4.80465C6.98784 4.92609 7.15624 4.99329 7.33104 4.99177C7.50584 4.99025 7.67305 4.92014 7.79665 4.79653C7.92026 4.67293 7.99037 4.50572 7.99189 4.33092C7.99341 4.15612 7.92621 3.98772 7.80478 3.86199L4.47144 0.528656Z" fill="#9CA3AF"/>
</svg>
