<svg width="13" height="8" viewBox="0 0 13 8" fill="none" xmlns="http://www.w3.org/2000/svg">
<path d="M7.40414 6.78316C7.03659 7.15071 6.44066 7.15071 6.07311 6.78316L4.38568 5.09573L1.75708 7.72434C1.38953 8.09189 0.793607 8.09189 0.426055 7.72434C0.0585025 7.35678 0.0585025 6.76086 0.426055 6.39331L3.72017 3.09919C4.08772 2.73164 4.68364 2.73164 5.0512 3.09919L6.73863 4.78662L9.64289 1.88235H7.6798C7.16001 1.88235 6.73863 1.46097 6.73863 0.941176C6.73863 0.421379 7.16 0 7.6798 0H12.565C12.7258 0 12.8563 0.130427 12.8563 0.291316V5.17647C12.8563 5.69627 12.4349 6.11765 11.9151 6.11765C11.3953 6.11765 10.9739 5.69627 10.9739 5.17647V3.21338L7.40414 6.78316Z" fill="#26C4C1"/>
</svg>
