<svg width="24" height="24" viewBox="0 0 24 24" fill="none"
  xmlns="http://www.w3.org/2000/svg">
  <path d="M12.707 8.293C12.5195 8.10553 12.2652 8.00021 12 8.00021C11.7348 8.00021 11.4805 8.10553 11.293 8.293L6.293 13.293C6.11084 13.4816 6.01005 13.7342 6.01233 13.9964C6.01461 14.2586 6.11978 14.5094 6.30518 14.6948C6.49059 14.8802 6.7414 14.9854 7.0036 14.9877C7.2658 14.99 7.5184 14.8892 7.707 14.707L12 10.414L16.293 14.707C16.4816 14.8892 16.7342 14.99 16.9964 14.9877C17.2586 14.9854 17.5094 14.8802 17.6948 14.6948C17.8802 14.5094 17.9854 14.2586 17.9877 13.9964C17.99 13.7342 17.8892 13.4816 17.707 13.293L12.707 8.293Z" fill="currentColor"/>
</svg>
