<svg width="24" height="24" viewBox="0 0 24 24" fill="none"
  xmlns="http://www.w3.org/2000/svg">
  <path d="M15.707 11.293L10.707 6.29301C10.5184 6.11085 10.2658 6.01006 10.0036 6.01234C9.74141 6.01461 9.49059 6.11978 9.30519 6.30519C9.11978 6.4906 9.01461 6.74141 9.01233 7.00361C9.01005 7.26581 9.11085 7.51841 9.293 7.70701L13.586 12L9.293 16.293C9.19749 16.3853 9.12131 16.4956 9.0689 16.6176C9.01649 16.7396 8.98891 16.8708 8.98775 17.0036C8.9866 17.1364 9.0119 17.2681 9.06218 17.391C9.11246 17.5139 9.18672 17.6255 9.28061 17.7194C9.3745 17.8133 9.48615 17.8876 9.60905 17.9378C9.73195 17.9881 9.86363 18.0134 9.99641 18.0123C10.1292 18.0111 10.2604 17.9835 10.3824 17.9311C10.5044 17.8787 10.6148 17.8025 10.707 17.707L15.707 12.707C15.8945 12.5195 15.9998 12.2652 15.9998 12C15.9998 11.7348 15.8945 11.4805 15.707 11.293Z" fill="currentColor"/>
</svg>
