<svg width="24" height="24" viewBox="0 0 24 24" fill="none"
  xmlns="http://www.w3.org/2000/svg">
  <path d="M14.707 6.293C14.5195 6.10553 14.2652 6.00021 14 6.00021C13.7348 6.00021 13.4805 6.10553 13.293 6.293L8.293 11.293C8.10553 11.4805 8.00021 11.7348 8.00021 12C8.00021 12.2652 8.10553 12.5195 8.293 12.707L13.293 17.707C13.4816 17.8892 13.7342 17.99 13.9964 17.9877C14.2586 17.9854 14.5094 17.8802 14.6948 17.6948C14.8802 17.5094 14.9854 17.2586 14.9877 16.9964C14.99 16.7342 14.8892 16.4816 14.707 16.293L10.414 12L14.707 7.707C14.8945 7.51947 14.9998 7.26516 14.9998 7C14.9998 6.73484 14.8945 6.48053 14.707 6.293Z" fill="currentColor"/>
</svg>
