<svg width="13" height="8" viewBox="0 0 13 8" fill="none" xmlns="http://www.w3.org/2000/svg">
<path d="M7.40023 1.21684C7.03268 0.849288 6.43676 0.849288 6.06921 1.21684L4.38178 2.90427L1.75317 0.275664C1.38562 -0.0918884 0.789701 -0.0918884 0.422149 0.275664C0.0545963 0.643216 0.0545963 1.23914 0.422149 1.60669L3.71627 4.90081C4.08382 5.26836 4.67974 5.26836 5.04729 4.90081L6.73472 3.21338L9.63899 6.11765H7.6759C7.1561 6.11765 6.73472 6.53903 6.73472 7.05882C6.73472 7.57862 7.1561 8 7.6759 8H12.561C12.7219 8 12.8524 7.86957 12.8524 7.70868V2.82353C12.8524 2.30373 12.431 1.88235 11.9112 1.88235C11.3914 1.88235 10.97 2.30373 10.97 2.82353V4.78662L7.40023 1.21684Z" fill="#CA3E92"/>
</svg>
