<svg width="29" height="28" viewBox="0 0 29 28" fill="none" xmlns="http://www.w3.org/2000/svg">
<path d="M19.4053 10.8419L14.3968 15.8504L9.3883 10.8419C9.16826 10.6294 8.87356 10.5118 8.56766 10.5144C8.26177 10.5171 7.96915 10.6398 7.75284 10.8561C7.53653 11.0724 7.41384 11.365 7.41118 11.6709C7.40852 11.9768 7.52611 12.2715 7.73863 12.4916L13.572 18.3249C13.7907 18.5436 14.0874 18.6665 14.3968 18.6665C14.7062 18.6665 15.0028 18.5436 15.2216 18.3249L21.055 12.4916C21.1664 12.3839 21.2553 12.2552 21.3164 12.1129C21.3776 11.9705 21.4097 11.8174 21.4111 11.6625C21.4124 11.5076 21.3829 11.354 21.3243 11.2106C21.2656 11.0672 21.179 10.937 21.0694 10.8274C20.9599 10.7179 20.8296 10.6313 20.6862 10.5726C20.5429 10.5139 20.3892 10.4844 20.2343 10.4858C20.0794 10.4871 19.9263 10.5193 19.784 10.5804C19.6417 10.6416 19.5129 10.7305 19.4053 10.8419Z" fill="currentColor"/>
</svg>
