<svg width="21" height="13" viewBox="0 0 21 13" fill="none" xmlns="http://www.w3.org/2000/svg">
<path d="M17.155 1.48837L10 8.64337L2.84503 1.48837C2.53069 1.18477 2.10969 1.01678 1.67269 1.02058C1.2357 1.02437 0.817677 1.19966 0.508663 1.50867C0.19965 1.81768 0.0243682 2.2357 0.0205708 2.6727C0.0167735 3.10969 0.184764 3.5307 0.488361 3.84503L8.8217 12.1784C9.13424 12.4908 9.55809 12.6663 10 12.6663C10.442 12.6663 10.8658 12.4908 11.1784 12.1784L19.5117 3.84503C19.6709 3.69129 19.7978 3.50738 19.8852 3.30404C19.9725 3.1007 20.0185 2.882 20.0204 2.6607C20.0224 2.4394 19.9802 2.21994 19.8964 2.01511C19.8126 1.81028 19.6888 1.6242 19.5324 1.46771C19.3759 1.31122 19.1898 1.18747 18.985 1.10366C18.7801 1.01986 18.5607 0.977693 18.3394 0.979616C18.1181 0.981539 17.8994 1.02752 17.696 1.11486C17.4927 1.20221 17.3088 1.32918 17.155 1.48837Z" fill="#9CA3AF"/>
</svg>
