<svg width="24" height="24" viewBox="0 0 24 24" fill="none" xmlns="http://www.w3.org/2000/svg">
<path d="M14.4713 11.5288L11.138 8.19544C11.0123 8.074 10.8439 8.00681 10.6691 8.00833C10.4943 8.00984 10.3271 8.07996 10.2035 8.20356C10.0799 8.32717 10.0097 8.49438 10.0082 8.66917C10.0067 8.84397 10.0739 9.01237 10.1953 9.13811L13.0573 12.0001L10.1953 14.8621C10.1317 14.9236 10.0809 14.9972 10.0459 15.0785C10.011 15.1598 9.99262 15.2473 9.99185 15.3358C9.99108 15.4244 10.0079 15.5121 10.0415 15.5941C10.075 15.676 10.1245 15.7504 10.1871 15.813C10.2497 15.8756 10.3241 15.9251 10.406 15.9587C10.488 15.9922 10.5758 16.009 10.6643 16.0083C10.7528 16.0075 10.8403 15.9891 10.9216 15.9542C11.003 15.9192 11.0765 15.8684 11.138 15.8048L14.4713 12.4714C14.5963 12.3464 14.6665 12.1769 14.6665 12.0001C14.6665 11.8233 14.5963 11.6538 14.4713 11.5288Z" fill="currentColor"/>
</svg>
