<svg width="41" height="40" viewBox="0 0 41 40" fill="none" xmlns="http://www.w3.org/2000/svg">
<path d="M31.2301 6.66669H14.5635C13.1827 6.66669 12.0635 7.78596 12.0635 9.16669V11.6667H9.56348C8.18275 11.6667 7.06348 12.786 7.06348 14.1667V30.8334C7.06348 32.2141 8.18275 33.3334 9.56348 33.3334H26.2301C27.6109 33.3334 28.7301 32.2141 28.7301 30.8334V28.3334H31.2301C32.6109 28.3334 33.7301 27.2141 33.7301 25.8334V9.16669C33.7301 7.78596 32.6109 6.66669 31.2301 6.66669ZM25.9176 30.8334H9.87598C9.7931 30.8334 9.71361 30.8004 9.65501 30.7418C9.5964 30.6832 9.56348 30.6037 9.56348 30.5209V14.4792C9.56348 14.3963 9.5964 14.3168 9.65501 14.2582C9.71361 14.1996 9.7931 14.1667 9.87598 14.1667H12.0635V25.8334C12.0635 27.2141 13.1827 28.3334 14.5635 28.3334H26.2301V30.5209C26.2301 30.6037 26.1972 30.6832 26.1386 30.7418C26.08 30.8004 26.0005 30.8334 25.9176 30.8334ZM30.9176 25.8334H14.876C14.7931 25.8334 14.7136 25.8004 14.655 25.7418C14.5964 25.6832 14.5635 25.6037 14.5635 25.5209V9.47919C14.5635 9.39631 14.5964 9.31682 14.655 9.25822C14.7136 9.19961 14.7931 9.16669 14.876 9.16669H30.9176C31.0005 9.16669 31.08 9.19961 31.1386 9.25822C31.1972 9.31682 31.2301 9.39631 31.2301 9.47919V25.5209C31.2301 25.6037 31.1972 25.6832 31.1386 25.7418C31.08 25.8004 31.0005 25.8334 30.9176 25.8334Z" fill="currentColor"/>
</svg>
