<svg width="32" height="32" viewBox="0 0 32 32" fill="none" xmlns="http://www.w3.org/2000/svg">
<path fill-rule="evenodd" clip-rule="evenodd" d="M10.723 24.4235L16.3329 18.8126L21.9433 24.423C22.2678 24.7475 22.7943 24.7475 23.1194 24.423L24.423 23.1194C24.7475 22.7948 24.7475 22.2683 24.423 21.9433L18.8121 16.3334L24.4225 10.723C24.747 10.3985 24.747 9.87201 24.4225 9.547L23.1188 8.24334C22.7943 7.91889 22.2678 7.91889 21.9428 8.24334L16.3329 13.8543L10.7225 8.24385C10.398 7.9194 9.8715 7.9194 9.54649 8.24385L8.24334 9.547C7.91889 9.87145 7.91889 10.398 8.24334 10.723L13.8538 16.3334L8.24334 21.9438C7.91889 22.2683 7.91889 22.7948 8.24334 23.1199L9.547 24.4235C9.8715 24.748 10.398 24.748 10.723 24.4235Z" fill="currentColor"/>
</svg>
