<svg width="24" height="24" viewBox="0 0 24 24" fill="none"
  xmlns="http://www.w3.org/2000/svg">
  <path fill-rule="evenodd" clip-rule="evenodd" d="M8.04228 18.3176L12.2497 14.1094L16.4575 18.3173C16.7009 18.5606 17.0958 18.5606 17.3395 18.3173L18.3173 17.3395C18.5606 17.0961 18.5606 16.7012 18.3173 16.4575L14.109 12.2501L18.3169 8.04228C18.5602 7.7989 18.5602 7.40401 18.3169 7.16025L17.3391 6.1825C17.0958 5.93917 16.7009 5.93917 16.4571 6.1825L12.2497 10.3907L8.0419 6.18289C7.79852 5.93955 7.40362 5.93955 7.15987 6.18289L6.1825 7.16025C5.93917 7.40359 5.93917 7.79852 6.1825 8.04228L10.3903 12.2501L6.1825 16.4579C5.93917 16.7012 5.93917 17.0961 6.1825 17.3399L7.16025 18.3176C7.40362 18.561 7.79852 18.561 8.04228 18.3176Z" fill="currentColor"/>
</svg>
