<svg width="17" height="17" viewBox="0 0 17 17" fill="none"
  xmlns="http://www.w3.org/2000/svg">
  <path fill-rule="evenodd" clip-rule="evenodd" d="M2.72304 16.4235L8.33292 10.8126L13.9433 16.423C14.2678 16.7475 14.7943 16.7475 15.1194 16.423L16.423 15.1194C16.7475 14.7948 16.7475 14.2683 16.423 13.9433L10.8121 8.33343L16.4225 2.72304C16.747 2.39854 16.747 1.87201 16.4225 1.547L15.1188 0.243339C14.7943 -0.081113 14.2678 -0.081113 13.9428 0.243339L8.33292 5.85429L2.72253 0.243848C2.39803 -0.0806044 1.8715 -0.0806044 1.54649 0.243848L0.243339 1.547C-0.081113 1.87145 -0.081113 2.39803 0.243339 2.72304L5.85378 8.33343L0.243339 13.9438C-0.081113 14.2683 -0.081113 14.7948 0.243339 15.1199L1.547 16.4235C1.8715 16.748 2.39803 16.748 2.72304 16.4235Z" fill="currentColor"/>
</svg>
