<svg width="13" height="13" viewBox="0 0 13 13" fill="none" xmlns="http://www.w3.org/2000/svg">
<path fill-rule="evenodd" clip-rule="evenodd" d="M2.04228 12.3176L6.24969 8.10943L10.4575 12.3173C10.7009 12.5606 11.0958 12.5606 11.3395 12.3173L12.3173 11.3395C12.5606 11.0961 12.5606 10.7012 12.3173 10.4575L8.10905 6.25007L12.3169 2.04228C12.5602 1.7989 12.5602 1.40401 12.3169 1.16025L11.3391 0.182504C11.0958 -0.0608347 10.7009 -0.0608347 10.4571 0.182504L6.24969 4.39072L2.0419 0.182886C1.79852 -0.0604533 1.40362 -0.0604533 1.15987 0.182886L0.182504 1.16025C-0.0608347 1.40359 -0.0608347 1.79852 0.182504 2.04228L4.39033 6.25007L0.182504 10.4579C-0.0608347 10.7012 -0.0608347 11.0961 0.182504 11.3399L1.16025 12.3176C1.40362 12.561 1.79852 12.561 2.04228 12.3176Z" fill="currentColor"/>
</svg>
