<svg width="27" height="28" viewBox="0 0 27 28" fill="none" xmlns="http://www.w3.org/2000/svg">
<path d="M24.2293 0.666992H7.56262C6.18189 0.666992 5.06262 1.78626 5.06262 3.16699V5.66699H2.56262C1.18189 5.66699 0.0626221 6.78626 0.0626221 8.16699V24.8337C0.0626221 26.2144 1.18189 27.3337 2.56262 27.3337H19.2293C20.61 27.3337 21.7293 26.2144 21.7293 24.8337V22.3337H24.2293C25.61 22.3337 26.7293 21.2144 26.7293 19.8337V3.16699C26.7293 1.78626 25.61 0.666992 24.2293 0.666992ZM18.9168 24.8337H2.87512C2.79224 24.8337 2.71276 24.8007 2.65415 24.7421C2.59555 24.6835 2.56262 24.604 2.56262 24.5212V8.47949C2.56262 8.39661 2.59555 8.31713 2.65415 8.25852C2.71276 8.19992 2.79224 8.16699 2.87512 8.16699H5.06262V19.8337C5.06262 21.2144 6.18189 22.3337 7.56262 22.3337H19.2293V24.5212C19.2293 24.604 19.1964 24.6835 19.1378 24.7421C19.0792 24.8007 18.9997 24.8337 18.9168 24.8337ZM23.9168 19.8337H7.87512C7.79224 19.8337 7.71276 19.8007 7.65415 19.7421C7.59555 19.6835 7.56262 19.604 7.56262 19.5212V3.47949C7.56262 3.39661 7.59555 3.31713 7.65415 3.25852C7.71276 3.19992 7.79224 3.16699 7.87512 3.16699H23.9168C23.9997 3.16699 24.0792 3.19992 24.1378 3.25852C24.1964 3.31713 24.2293 3.39661 24.2293 3.47949V19.5212C24.2293 19.604 24.1964 19.6835 24.1378 19.7421C24.0792 19.8007 23.9997 19.8337 23.9168 19.8337Z" fill="#9CA3AF"/>
</svg>
