<svg width="40" height="40" viewBox="0 0 40 40" fill="none"
  xmlns="http://www.w3.org/2000/svg">
  <path fill-rule="evenodd" clip-rule="evenodd" d="M23.3255 35.8333C25.0514 35.8333 26.4505 34.4342 26.4505 32.7083V29.5833H31.6588C33.3847 29.5833 34.7838 28.1842 34.7838 26.4583V9.00271C34.7838 8.28822 34.3737 7.29824 33.8685 6.79305L30.4907 3.41527C29.9855 2.91008 28.9956 2.5 28.2811 2.5H17.0755C15.3496 2.5 13.9505 3.8991 13.9505 5.62499V8.74999H8.74218C7.01629 8.74999 5.61719 10.1491 5.61719 11.875V32.7083C5.61719 34.4342 7.01629 35.8333 8.74218 35.8333H23.3255ZM31.2682 26.4583H17.4661C17.2505 26.4583 17.0755 26.2832 17.0755 26.0677V6.01562C17.0755 5.80002 17.2505 5.62499 17.4661 5.62499H24.3671V11.3541C24.3671 12.2171 25.0667 12.9166 25.9296 12.9166H31.6588V26.0677C31.6588 26.2832 31.4838 26.4583 31.2682 26.4583ZM31.6588 9.79165H27.4921V5.62499H28.1192C28.2228 5.62499 28.3221 5.66613 28.3955 5.73937L31.5444 8.88833C31.5865 8.93042 31.6233 8.99944 31.6432 9.06724L31.6588 9.16458V9.79165ZM22.9349 32.7083H9.1328C8.91721 32.7083 8.74218 32.5332 8.74218 32.3176V12.2656C8.74218 12.05 8.91721 11.875 9.1328 11.875H13.9505V26.4583C13.9505 28.1842 15.3496 29.5833 17.0755 29.5833H23.3255V32.3176C23.3255 32.5332 23.1504 32.7083 22.9349 32.7083Z" fill="currentColor"/>
</svg>
