<svg width="24" height="24" viewBox="0 0 24 24" fill="none" xmlns="http://www.w3.org/2000/svg">
<path d="M16.4795 11.5205L13.1462 8.18714C13.0204 8.0657 12.852 7.99851 12.6772 8.00003C12.5024 8.00154 12.3352 8.07166 12.2116 8.19526C12.088 8.31887 12.0179 8.48608 12.0164 8.66087C12.0149 8.83567 12.0821 9.00407 12.2035 9.12981L15.0655 11.9918L12.2035 14.8538C12.1398 14.9153 12.0891 14.9889 12.0541 15.0702C12.0192 15.1515 12.0008 15.239 12 15.3275C11.9992 15.4161 12.0161 15.5038 12.0496 15.5858C12.0832 15.6677 12.1327 15.7421 12.1953 15.8047C12.2578 15.8673 12.3323 15.9168 12.4142 15.9504C12.4961 15.9839 12.5839 16.0007 12.6724 16C12.761 15.9992 12.8484 15.9808 12.9298 15.9459C13.0111 15.9109 13.0847 15.8601 13.1462 15.7965L16.4795 12.4631C16.6045 12.3381 16.6747 12.1686 16.6747 11.9918C16.6747 11.815 16.6045 11.6455 16.4795 11.5205Z" fill="currentColor"/>
<path d="M12.4795 11.5205L9.14619 8.18715C9.02046 8.06571 8.85206 7.99851 8.67726 8.00003C8.50246 8.00155 8.33525 8.07166 8.21165 8.19527C8.08804 8.31887 8.01793 8.48608 8.01641 8.66088C8.01489 8.83568 8.08209 9.00408 8.20353 9.12981L11.0655 11.9918L8.20353 14.8538C8.13985 14.9153 8.08906 14.9889 8.05412 15.0702C8.01919 15.1515 8.00079 15.239 8.00003 15.3275C7.99926 15.4161 8.01612 15.5039 8.04964 15.5858C8.08316 15.6677 8.13267 15.7421 8.19526 15.8047C8.25786 15.8673 8.33229 15.9168 8.41422 15.9504C8.49615 15.9839 8.58394 16.0007 8.67246 16C8.76098 15.9992 8.84846 15.9808 8.9298 15.9459C9.01113 15.9109 9.08469 15.8602 9.14619 15.7965L12.4795 12.4631C12.6045 12.3381 12.6747 12.1686 12.6747 11.9918C12.6747 11.815 12.6045 11.6455 12.4795 11.5205Z" fill="currentColor"/>
</svg>
