<svg width="16" height="16" viewBox="0 0 16 16" fill="none" xmlns="http://www.w3.org/2000/svg">
<path fill-rule="evenodd" clip-rule="evenodd" d="M0.748464 16C0.776266 16 0.804403 15.9984 0.832509 15.9953L4.3994 15.6012L15.414 4.58654C16.1953 3.80529 16.1953 2.53906 15.4144 1.75811L14.2422 0.585936C13.8516 0.195312 13.3397 0 12.8278 0C12.3159 0 11.8041 0.195312 11.4138 0.585631L0.401572 11.5975L0.00472192 15.1668C-0.0452963 15.6162 0.308768 16 0.748464 16ZM12.9697 4.90935L11.0906 3.02999L12.4744 1.64624C12.6019 1.51873 12.7506 1.49969 12.8278 1.49969C12.905 1.49969 13.0541 1.51873 13.1812 1.64624L14.3534 2.81844C14.5484 3.01376 14.5484 3.33092 14.3534 3.52563L12.9697 4.90935ZM1.59908 14.4015L1.8344 12.2862L9.06064 5.05999L10.03 4.09063L11.9094 5.96999L10.94 6.93935L3.71095 14.1684L1.59908 14.4015Z" fill="currentColor"/>
</svg>
