<svg width="24" height="24" viewBox="0 0 24 24" fill="none" xmlns="http://www.w3.org/2000/svg">
<path d="M12 3C7.02979 3 3 7.03124 3 12C3 16.9717 7.02979 21 12 21C16.9702 21 21 16.9717 21 12C21 7.03124 16.9702 3 12 3ZM12 19.2581C7.98876 19.2581 4.74194 16.0126 4.74194 12C4.74194 7.9901 7.9889 4.74194 12 4.74194C16.0098 4.74194 19.2581 7.98887 19.2581 12C19.2581 16.0112 16.0126 19.2581 12 19.2581ZM13.5242 15.4839C13.5242 16.3243 12.8404 17.0081 12 17.0081C11.1596 17.0081 10.4758 16.3243 10.4758 15.4839C10.4758 14.6434 11.1596 13.9597 12 13.9597C12.8404 13.9597 13.5242 14.6434 13.5242 15.4839ZM10.5712 7.81206L10.818 12.7475C10.8296 12.9793 11.0209 13.1613 11.253 13.1613H12.747C12.9791 13.1613 13.1704 12.9793 13.182 12.7475L13.4287 7.81206C13.4412 7.56333 13.2429 7.35484 12.9938 7.35484H11.0062C10.7571 7.35484 10.5588 7.56333 10.5712 7.81206Z" fill="#CC3993"/>
</svg>
