<svg width="24" height="24" viewBox="0 0 24 24" fill="none"
  xmlns="http://www.w3.org/2000/svg">
  <path d="M20.3359 17.8789L3.98437 5.09598C3.93952 5.06007 3.88803 5.03335 3.83286 5.01733C3.77768 5.00132 3.71989 4.99633 3.66279 5.00266C3.60568 5.00898 3.55038 5.02649 3.50004 5.05418C3.44971 5.08188 3.40531 5.11921 3.36941 5.16406L3.09597 5.50559C3.05998 5.55045 3.03318 5.60197 3.01712 5.6572C3.00106 5.71243 2.99605 5.77029 3.00238 5.82746C3.0087 5.88463 3.02624 5.93999 3.05398 5.99037C3.08172 6.04076 3.11913 6.08518 3.16405 6.12109L19.5156 18.904C19.5605 18.9399 19.6119 18.9667 19.6671 18.9827C19.7223 18.9987 19.7801 19.0037 19.8372 18.9973C19.8943 18.991 19.9496 18.9735 19.9999 18.9458C20.0503 18.9181 20.0947 18.8808 20.1306 18.8359L20.404 18.4944C20.44 18.4495 20.4668 18.398 20.4829 18.3428C20.4989 18.2876 20.5039 18.2297 20.4976 18.1725C20.4913 18.1154 20.4737 18.06 20.446 18.0096C20.4183 17.9592 20.3809 17.9148 20.3359 17.8789ZM11.1153 9.00504L14.801 11.8865C14.7403 10.2475 13.4037 8.9375 11.75 8.9375C11.5367 8.9379 11.324 8.96053 11.1153 9.00504ZM12.3846 14.9952L8.69897 12.1137C8.75995 13.7525 10.0965 15.0625 11.75 15.0625C11.9633 15.062 12.176 15.0395 12.3846 14.9952ZM11.75 8.0625C14.4474 8.0625 16.9204 9.5664 18.2559 12C17.9285 12.5989 17.524 13.1523 17.0528 13.6461L18.0847 14.4527C18.6593 13.8381 19.146 13.147 19.5312 12.3989C19.5937 12.2752 19.6263 12.1385 19.6263 11.9999C19.6263 11.8612 19.5937 11.7245 19.5312 11.6008C18.047 8.70754 15.1114 6.75 11.75 6.75C10.7465 6.75 9.78917 6.94141 8.88901 7.26434L10.158 8.25664C10.6759 8.13906 11.2064 8.0625 11.75 8.0625ZM11.75 15.9375C9.05253 15.9375 6.57984 14.4336 5.24409 12C5.57188 11.4011 5.97684 10.8477 6.44859 10.3542L5.41663 9.54754C4.84218 10.1621 4.3555 10.8531 3.97042 11.6011C3.90787 11.7248 3.87528 11.8615 3.87528 12.0001C3.87528 12.1388 3.90787 12.2755 3.97042 12.3992C5.45327 15.2925 8.3889 17.25 11.75 17.25C12.7535 17.25 13.7108 17.0572 14.611 16.7357L13.3419 15.7436C12.8241 15.8609 12.2939 15.9375 11.75 15.9375Z" fill="currentColor"/>
</svg>
