<svg width="24" height="24" viewBox="0 0 24 24" fill="none"
  xmlns="http://www.w3.org/2000/svg">
  <path d="M11.875 8.9375C11.5852 8.94203 11.2975 8.98807 11.0208 9.07422C11.1488 9.29934 11.2169 9.55353 11.2187 9.8125C11.2187 10.0136 11.1791 10.2127 11.1022 10.3985C11.0252 10.5843 10.9124 10.7531 10.7702 10.8953C10.6281 11.0374 10.4592 11.1502 10.2735 11.2272C10.0877 11.3041 9.88857 11.3438 9.68748 11.3438C9.42851 11.342 9.17433 11.2738 8.9492 11.1458C8.77159 11.7618 8.79229 12.418 9.00838 13.0216C9.22446 13.6252 9.62498 14.1455 10.1532 14.5088C10.6814 14.8721 11.3105 15.06 11.9515 15.0459C12.5924 15.0318 13.2127 14.8163 13.7244 14.4301C14.2361 14.0439 14.6133 13.5065 14.8026 12.894C14.9919 12.2815 14.9837 11.6249 14.7791 11.0173C14.5745 10.4098 14.184 9.88195 13.6627 9.50867C13.1415 9.13539 12.5161 8.93557 11.875 8.9375ZM19.6548 11.6008C18.172 8.70754 15.2364 6.75 11.875 6.75C8.51362 6.75 5.57717 8.70891 4.09514 11.6011C4.03259 11.7248 4 11.8615 4 12.0001C4 12.1388 4.03259 12.2755 4.09514 12.3992C5.57799 15.2925 8.51362 17.25 11.875 17.25C15.2364 17.25 18.1728 15.2911 19.6548 12.3989C19.7174 12.2752 19.75 12.1385 19.75 11.9999C19.75 11.8612 19.7174 11.7245 19.6548 11.6008ZM11.875 15.9375C9.17752 15.9375 6.70456 14.4336 5.36909 12C6.70456 9.56641 9.17725 8.0625 11.875 8.0625C14.5727 8.0625 17.0454 9.56641 18.3809 12C17.0457 14.4336 14.5727 15.9375 11.875 15.9375Z" fill="currentColor"/>
</svg>
