<svg width="16" height="16" viewBox="0 0 16 16" fill="none" xmlns="http://www.w3.org/2000/svg">
<path d="M3.66663 10.3337C3.46885 10.3337 3.27551 10.3923 3.11106 10.5022C2.94661 10.6121 2.81843 10.7682 2.74275 10.951C2.66706 11.1337 2.64726 11.3348 2.68584 11.5287C2.72443 11.7227 2.81967 11.9009 2.95952 12.0408C3.09937 12.1806 3.27756 12.2759 3.47154 12.3144C3.66552 12.353 3.86658 12.3332 4.04931 12.2575C4.23204 12.1819 4.38822 12.0537 4.4981 11.8892C4.60798 11.7248 4.66663 11.5314 4.66663 11.3337C4.66663 11.0684 4.56127 10.8141 4.37373 10.6266C4.1862 10.439 3.93184 10.3337 3.66663 10.3337ZM3.66663 7.00033C3.46885 7.00033 3.27551 7.05897 3.11106 7.16886C2.94661 7.27874 2.81843 7.43492 2.74275 7.61764C2.66706 7.80037 2.64726 8.00143 2.68584 8.19542C2.72443 8.3894 2.81967 8.56758 2.95952 8.70743C3.09937 8.84728 3.27756 8.94253 3.47154 8.98111C3.66552 9.0197 3.86658 8.99989 4.04931 8.9242C4.23204 8.84852 4.38822 8.72034 4.4981 8.5559C4.60798 8.39145 4.66663 8.19811 4.66663 8.00033C4.66663 7.73511 4.56127 7.48075 4.37373 7.29322C4.1862 7.10568 3.93184 7.00033 3.66663 7.00033ZM3.66663 3.66699C3.46885 3.66699 3.27551 3.72564 3.11106 3.83552C2.94661 3.9454 2.81843 4.10158 2.74275 4.28431C2.66706 4.46703 2.64726 4.6681 2.68584 4.86208C2.72443 5.05606 2.81967 5.23425 2.95952 5.3741C3.09937 5.51395 3.27756 5.60919 3.47154 5.64778C3.66552 5.68636 3.86658 5.66656 4.04931 5.59087C4.23204 5.51518 4.38822 5.38701 4.4981 5.22256C4.60798 5.05811 4.66663 4.86477 4.66663 4.66699C4.66663 4.40178 4.56127 4.14742 4.37373 3.95989C4.1862 3.77235 3.93184 3.66699 3.66663 3.66699ZM13 4.16699H6.33329C6.24489 4.16699 6.1601 4.20211 6.09759 4.26462C6.03508 4.32714 5.99996 4.41192 5.99996 4.50033V4.83366C5.99996 4.92206 6.03508 5.00685 6.09759 5.06936C6.1601 5.13187 6.24489 5.16699 6.33329 5.16699H13C13.0884 5.16699 13.1732 5.13187 13.2357 5.06936C13.2982 5.00685 13.3333 4.92206 13.3333 4.83366V4.50033C13.3333 4.41192 13.2982 4.32714 13.2357 4.26462C13.1732 4.20211 13.0884 4.16699 13 4.16699ZM13 7.50033H6.33329C6.24489 7.50033 6.1601 7.53544 6.09759 7.59796C6.03508 7.66047 5.99996 7.74525 5.99996 7.83366V8.16699C5.99996 8.2554 6.03508 8.34018 6.09759 8.40269C6.1601 8.46521 6.24489 8.50033 6.33329 8.50033H13C13.0884 8.50033 13.1732 8.46521 13.2357 8.40269C13.2982 8.34018 13.3333 8.2554 13.3333 8.16699V7.83366C13.3333 7.74525 13.2982 7.66047 13.2357 7.59796C13.1732 7.53544 13.0884 7.50033 13 7.50033ZM13 10.8337H6.33329C6.24489 10.8337 6.1601 10.8688 6.09759 10.9313C6.03508 10.9938 5.99996 11.0786 5.99996 11.167V11.5003C5.99996 11.5887 6.03508 11.6735 6.09759 11.736C6.1601 11.7985 6.24489 11.8337 6.33329 11.8337H13C13.0884 11.8337 13.1732 11.7985 13.2357 11.736C13.2982 11.6735 13.3333 11.5887 13.3333 11.5003V11.167C13.3333 11.0786 13.2982 10.9938 13.2357 10.9313C13.1732 10.8688 13.0884 10.8337 13 10.8337Z" fill="#65647E"/>
</svg>
