<svg width="34" height="34" viewBox="0 0 34 34" fill="none" xmlns="http://www.w3.org/2000/svg">
<path d="M29.2511 3.78845L18.6328 11.6748L20.5963 7.02197L29.2511 3.78845Z" fill="#E2761B" stroke="#E2761B" stroke-linecap="round" stroke-linejoin="round"/>
<path d="M4.73822 3.78845L15.2712 11.7495L13.4036 7.02197L4.73822 3.78845Z" fill="#E4761B" stroke="#E4761B" stroke-linecap="round" stroke-linejoin="round"/>
<path d="M25.4306 22.0691L22.6026 26.4018L28.6534 28.0665L30.3929 22.1651L25.4306 22.0691Z" fill="#E4761B" stroke="#E4761B" stroke-linecap="round" stroke-linejoin="round"/>
<path d="M3.61768 22.1651L5.34649 28.0665L11.3973 26.4018L8.56934 22.0691L3.61768 22.1651Z" fill="#E4761B" stroke="#E4761B" stroke-linecap="round" stroke-linejoin="round"/>
<path d="M11.0558 14.7483L9.36969 17.2988L15.3779 17.5656L15.1644 11.1092L11.0558 14.7483Z" fill="#E4761B" stroke="#E4761B" stroke-linecap="round" stroke-linejoin="round"/>
<path d="M22.9334 14.7483L18.7715 11.0345L18.6328 17.5656L24.6302 17.2988L22.9334 14.7483Z" fill="#E4761B" stroke="#E4761B" stroke-linecap="round" stroke-linejoin="round"/>
<path d="M11.3973 26.4018L15.0044 24.6409L11.8882 22.2078L11.3973 26.4018Z" fill="#E4761B" stroke="#E4761B" stroke-linecap="round" stroke-linejoin="round"/>
<path d="M18.9849 24.6409L22.6026 26.4018L22.1011 22.2078L18.9849 24.6409Z" fill="#E4761B" stroke="#E4761B" stroke-linecap="round" stroke-linejoin="round"/>
<path d="M22.6026 26.4018L18.9849 24.6409L19.2731 26.9994L19.241 27.9918L22.6026 26.4018Z" fill="#D7C1B3" stroke="#D7C1B3" stroke-linecap="round" stroke-linejoin="round"/>
<path d="M11.3973 26.4018L14.7589 27.9918L14.7376 26.9994L15.0044 24.6409L11.3973 26.4018Z" fill="#D7C1B3" stroke="#D7C1B3" stroke-linecap="round" stroke-linejoin="round"/>
<path d="M14.8123 20.6497L11.8029 19.764L13.9265 18.7928L14.8123 20.6497Z" fill="#233447" stroke="#233447" stroke-linecap="round" stroke-linejoin="round"/>
<path d="M19.177 20.6497L20.0628 18.7928L22.1971 19.764L19.177 20.6497Z" fill="#233447" stroke="#233447" stroke-linecap="round" stroke-linejoin="round"/>
<path d="M11.3973 26.4018L11.9096 22.0691L8.56934 22.1651L11.3973 26.4018Z" fill="#CD6116" stroke="#CD6116" stroke-linecap="round" stroke-linejoin="round"/>
<path d="M22.0904 22.0691L22.6026 26.4018L25.4306 22.1651L22.0904 22.0691Z" fill="#CD6116" stroke="#CD6116" stroke-linecap="round" stroke-linejoin="round"/>
<path d="M24.6302 17.2988L18.6328 17.5656L19.1877 20.6497L20.0734 18.7928L22.2078 19.764L24.6302 17.2988Z" fill="#CD6116" stroke="#CD6116" stroke-linecap="round" stroke-linejoin="round"/>
<path d="M11.8028 19.764L13.9372 18.7928L14.8123 20.6497L15.3779 17.5656L9.36969 17.2988L11.8028 19.764Z" fill="#CD6116" stroke="#CD6116" stroke-linecap="round" stroke-linejoin="round"/>
<path d="M9.36975 17.2988L11.8883 22.2078L11.8029 19.764L9.36975 17.2988Z" fill="#E4751F" stroke="#E4751F" stroke-linecap="round" stroke-linejoin="round"/>
<path d="M22.2078 19.764L22.1011 22.2078L24.6303 17.2988L22.2078 19.764Z" fill="#E4751F" stroke="#E4751F" stroke-linecap="round" stroke-linejoin="round"/>
<path d="M15.3779 17.5656L14.8123 20.6497L15.5166 24.2888L15.6767 19.4972L15.3779 17.5656Z" fill="#E4751F" stroke="#E4751F" stroke-linecap="round" stroke-linejoin="round"/>
<path d="M18.6328 17.5656L18.3447 19.4865L18.4727 24.2888L19.1877 20.6497L18.6328 17.5656Z" fill="#E4751F" stroke="#E4751F" stroke-linecap="round" stroke-linejoin="round"/>
<path d="M19.1877 20.6497L18.4727 24.2888L18.985 24.6409L22.1011 22.2078L22.2078 19.764L19.1877 20.6497Z" fill="#F6851B" stroke="#F6851B" stroke-linecap="round" stroke-linejoin="round"/>
<path d="M11.8029 19.764L11.8882 22.2078L15.0044 24.6409L15.5166 24.2888L14.8123 20.6497L11.8029 19.764Z" fill="#F6851B" stroke="#F6851B" stroke-linecap="round" stroke-linejoin="round"/>
<path d="M19.241 27.9918L19.273 26.9994L19.0063 26.7646H14.983L14.7376 26.9994L14.7589 27.9918L11.3973 26.4018L12.5712 27.3622L14.951 29.0163H19.0383L21.4287 27.3622L22.6026 26.4018L19.241 27.9918Z" fill="#C0AD9E" stroke="#C0AD9E" stroke-linecap="round" stroke-linejoin="round"/>
<path d="M18.9849 24.6409L18.4727 24.2888H15.5166L15.0044 24.6409L14.7376 26.9994L14.9831 26.7646H19.0063L19.2731 26.9994L18.9849 24.6409Z" fill="#161616" stroke="#161616" stroke-linecap="round" stroke-linejoin="round"/>
<path d="M29.6993 12.1871L30.6064 7.83302L29.2511 3.78845L18.9849 11.408L22.9334 14.7483L28.5147 16.381L29.7527 14.9404L29.2191 14.5562L30.0728 13.7772L29.4112 13.2649L30.2649 12.6139L29.6993 12.1871Z" fill="#763D16" stroke="#763D16" stroke-linecap="round" stroke-linejoin="round"/>
<path d="M3.39362 7.83302L4.30071 12.1871L3.72444 12.6139L4.57817 13.2649L3.9272 13.7772L4.78094 14.5562L4.24735 14.9404L5.4746 16.381L11.0559 14.7483L15.0044 11.408L4.73825 3.78845L3.39362 7.83302Z" fill="#763D16" stroke="#763D16" stroke-linecap="round" stroke-linejoin="round"/>
<path d="M28.5148 16.381L22.9335 14.7483L24.6303 17.2988L22.1011 22.2078L25.4306 22.1651H30.393L28.5148 16.381Z" fill="#F6851B" stroke="#F6851B" stroke-linecap="round" stroke-linejoin="round"/>
<path d="M11.0558 14.7483L5.47455 16.381L3.61768 22.1651H8.56934L11.8882 22.2078L9.36972 17.2988L11.0558 14.7483Z" fill="#F6851B" stroke="#F6851B" stroke-linecap="round" stroke-linejoin="round"/>
<path d="M18.6328 17.5656L18.9849 11.408L20.607 7.02197H13.4036L15.0044 11.408L15.3779 17.5656L15.5059 19.5078L15.5166 24.2888H18.4727L18.494 19.5078L18.6328 17.5656Z" fill="#F6851B" stroke="#F6851B" stroke-linecap="round" stroke-linejoin="round"/>
</svg>
