<svg width="6" height="18" viewBox="0 0 6 18" fill="none" xmlns="http://www.w3.org/2000/svg">
<path fill-rule="evenodd" clip-rule="evenodd" d="M2.6582 5.59374C4.05741 5.59374 5.18944 4.4617 5.18944 3.06249C5.18944 1.66329 4.05741 0.53125 2.6582 0.53125C1.25899 0.53125 0.126953 1.66329 0.126953 3.06249C0.126953 4.4617 1.25899 5.59374 2.6582 5.59374ZM2.6582 11.7812C4.05741 11.7812 5.18944 10.6492 5.18944 9.24998C5.18944 7.85077 4.05741 6.71874 2.6582 6.71874C1.25899 6.71874 0.126953 7.85077 0.126953 9.24998C0.126953 10.6492 1.25899 11.7812 2.6582 11.7812ZM2.6582 17.9687C4.05741 17.9687 5.18944 16.8367 5.18944 15.4375C5.18944 14.0383 4.05741 12.9062 2.6582 12.9062C1.25899 12.9062 0.126953 14.0383 0.126953 15.4375C0.126953 16.8367 1.25899 17.9687 2.6582 17.9687Z" fill="#F3F4F6"/>
</svg>
