<svg width="24" height="24" viewBox="0 0 24 24" fill="none" xmlns="http://www.w3.org/2000/svg">
<path d="M4.24846 20C3.99512 19.8398 3.95957 19.7508 4.03512 19.4527C4.34624 18.2067 4.65292 16.9563 4.96848 15.7103C4.99562 15.6113 5.04765 15.5209 5.1196 15.4478C8.0056 12.5494 10.8916 9.65547 13.7776 6.766L13.8665 6.6859L17.3333 10.139C17.2852 10.1629 17.2404 10.1928 17.1999 10.228L8.58191 18.8297C8.48652 18.9233 8.36866 18.9907 8.23968 19.0255C7.00409 19.3459 5.75961 19.6529 4.51958 19.96L4.44402 20H4.24846ZM20 6.47676C19.9477 6.14904 19.808 5.84155 19.5955 5.58678C19.2089 5.18628 18.8266 4.77689 18.4133 4.40755C18.1027 4.1444 17.709 4 17.3021 4C16.8953 4 16.5016 4.1444 16.191 4.40755C15.7466 4.81694 15.3021 5.29753 14.9065 5.71137L18.2933 9.1022C18.7377 8.68391 19.1822 8.26561 19.5955 7.81617C19.7384 7.62645 19.8522 7.41648 19.9333 7.19319C19.9668 7.1028 19.9892 7.00866 20 6.91285V6.47676Z" fill="currentColor"/>
</svg>
