<svg width="26" height="26" viewBox="0 0 26 26" fill="none" xmlns="http://www.w3.org/2000/svg">
<path d="M18.5714 11.6071H14.3929V7.42857C14.3929 6.91583 13.977 6.5 13.4643 6.5H12.5357C12.023 6.5 11.6071 6.91583 11.6071 7.42857V11.6071H7.42857C6.91583 11.6071 6.5 12.023 6.5 12.5357V13.4643C6.5 13.977 6.91583 14.3929 7.42857 14.3929H11.6071V18.5714C11.6071 19.0842 12.023 19.5 12.5357 19.5H13.4643C13.977 19.5 14.3929 19.0842 14.3929 18.5714V14.3929H18.5714C19.0842 14.3929 19.5 13.977 19.5 13.4643V12.5357C19.5 12.023 19.0842 11.6071 18.5714 11.6071Z" fill="currentColor"/>
</svg>
