<svg width="16" height="16" viewBox="0 0 16 16" fill="none" xmlns="http://www.w3.org/2000/svg">
<path d="M7.99999 13.6875C7.25182 13.6895 6.51061 13.5438 5.81882 13.2589C5.12703 12.974 4.49825 12.5554 3.96851 12.027C3.43877 11.4987 3.01848 10.871 2.7317 10.18C2.44493 9.48898 2.29732 8.74816 2.29732 7.99999C2.29732 4.84532 4.84532 2.31249 7.99999 2.31249C9.56216 2.31249 10.9727 2.96466 12.004 3.99599L9.25882 6.74116H15.5833V0.416656L13.3538 2.64616C11.9342 1.22439 10.0092 0.422765 7.99999 0.416656C5.98877 0.416656 4.05991 1.21561 2.63776 2.63776C1.21561 4.05991 0.416656 5.98877 0.416656 7.99999C0.416656 12.186 3.81399 15.5833 7.99999 15.5833C9.79102 15.5825 11.5237 14.9466 12.89 13.7886C14.2563 12.6306 15.1677 11.0255 15.462 9.25882H13.5358C12.9595 11.7917 10.6997 13.6875 7.99999 13.6875Z" fill="currentColor"/>
</svg>
