<svg width="24" height="24" viewBox="0 0 24 24" fill="none"
  xmlns="http://www.w3.org/2000/svg">
  <path fill-rule="evenodd" clip-rule="evenodd" d="M17.119 11.7803L19.7071 9.2071C20.0976 8.81657 20.0976 8.18342 19.7071 7.79289L17.119 5.21968C16.8261 4.92677 16.3513 4.92677 16.0584 5.21968L15.7196 5.55842C15.421 5.85704 15.4277 6.34321 15.7344 6.6335L16.6865 7.49998H4.75C4.33578 7.49998 4 7.83576 4 8.24998V8.74998C4 9.16419 4.33578 9.49997 4.75 9.49997H16.6865L15.7344 10.3665C15.4277 10.6567 15.421 11.1429 15.7196 11.4416L16.0584 11.7803C16.3513 12.0732 16.8261 12.0732 17.119 11.7803ZM7.94158 17.7803L8.28032 17.4415C8.57897 17.1429 8.57222 16.6568 8.26552 16.3665L7.31344 15.5H19.25C19.6642 15.5 20 15.1642 20 14.75V14.25C20 13.8357 19.6642 13.5 19.25 13.5H7.31344L8.26552 12.6335C8.57222 12.3432 8.57897 11.857 8.28032 11.5584L7.94158 11.2197C7.64867 10.9268 7.17385 10.9268 6.88094 11.2197L4.29291 13.7929C3.90237 14.1834 3.90237 14.8166 4.29291 15.2071L6.88094 17.7803C7.17385 18.0732 7.6487 18.0732 7.94158 17.7803Z" fill="currentcolor"/>
</svg>
