<svg width="40" height="40" viewBox="0 0 40 40" fill="none" xmlns="http://www.w3.org/2000/svg">
<path d="M6.66667 15.0003H28.3333L25.6667 17.0003C25.4916 17.1316 25.3441 17.2962 25.2325 17.4845C25.121 17.6728 25.0477 17.8813 25.0168 18.0979C24.9858 18.3146 24.9978 18.5353 25.0521 18.7473C25.1065 18.9593 25.202 19.1586 25.3333 19.3336C25.4886 19.5406 25.6899 19.7086 25.9213 19.8244C26.1527 19.9401 26.4079 20.0003 26.6667 20.0003C27.0273 20.0003 27.3782 19.8834 27.6667 19.667L34.3333 14.667C34.5372 14.5114 34.7024 14.311 34.8161 14.0812C34.9298 13.8513 34.989 13.5984 34.989 13.342C34.989 13.0856 34.9298 12.8326 34.8161 12.6028C34.7024 12.373 34.5372 12.1725 34.3333 12.017L27.9 7.01698C27.5508 6.74513 27.1079 6.62314 26.6688 6.67784C26.2296 6.73254 25.8302 6.95945 25.5583 7.30865C25.2865 7.65785 25.1645 8.10074 25.2192 8.53989C25.2739 8.97904 25.5008 9.37847 25.85 9.65031L28.4667 11.667H6.66667C6.22464 11.667 5.80072 11.8426 5.48816 12.1551C5.17559 12.4677 5 12.8916 5 13.3336C5 13.7757 5.17559 14.1996 5.48816 14.5122C5.80072 14.8247 6.22464 15.0003 6.66667 15.0003ZM33.3333 26.667H11.6667L14.3333 24.667C14.687 24.4018 14.9207 24.0069 14.9832 23.5693C15.0458 23.1318 14.9319 22.6873 14.6667 22.3336C14.4015 21.98 14.0066 21.7462 13.569 21.6837C13.1315 21.6212 12.687 21.7351 12.3333 22.0003L5.66667 27.0003C5.46282 27.1559 5.29761 27.3563 5.18389 27.5861C5.07018 27.816 5.01102 28.0689 5.01102 28.3253C5.01102 28.5817 5.07018 28.8347 5.18389 29.0645C5.29761 29.2943 5.46282 29.4948 5.66667 29.6503L12.1 34.6503C12.3909 34.8761 12.7484 34.9992 13.1167 35.0003C13.3712 34.9997 13.6222 34.9408 13.8504 34.8281C14.0787 34.7155 14.2781 34.552 14.4333 34.3503C14.704 34.0029 14.8261 33.5624 14.773 33.1252C14.7199 32.688 14.4959 32.2896 14.15 32.017L11.5333 30.0003H33.3333C33.7754 30.0003 34.1993 29.8247 34.5118 29.5122C34.8244 29.1996 35 28.7757 35 28.3336C35 27.8916 34.8244 27.4677 34.5118 27.1551C34.1993 26.8426 33.7754 26.667 33.3333 26.667Z" fill="currentColor"/>
</svg>
