<svg width="24" height="24" viewBox="0 0 24 24" fill="none"
  xmlns="http://www.w3.org/2000/svg">
  <path fill-rule="evenodd" clip-rule="evenodd" d="M11.7197 16.619L14.2929 19.2071C14.6834 19.5976 15.3166 19.5976 15.7071 19.2071L18.2803 16.619C18.5732 16.3261 18.5732 15.8513 18.2803 15.5584L17.9415 15.2196C17.6429 14.921 17.1568 14.9277 16.8665 15.2344L16 16.1865L16 4.25001C16 3.83579 15.6642 3.50001 15.25 3.50001L14.75 3.50001C14.3358 3.50001 14 3.83579 14 4.25001L14 16.1865L13.1335 15.2344C12.8432 14.9277 12.357 14.921 12.0584 15.2196L11.7197 15.5584C11.4268 15.8513 11.4268 16.3261 11.7197 16.619ZM5.71968 7.44159L6.05842 7.78033C6.35704 8.07898 6.84321 8.07223 7.1335 7.76553L8.00001 6.81345L8.00001 18.75C8.00001 19.1642 8.33579 19.5 8.75001 19.5L9.25001 19.5C9.66422 19.5 10 19.1642 10 18.75L10 6.81345L10.8665 7.76553C11.1568 8.07223 11.6429 8.07898 11.9416 7.78033L12.2803 7.44159C12.5732 7.14868 12.5732 6.67386 12.2803 6.38095L9.7071 3.79291C9.31657 3.40238 8.68342 3.40238 8.29289 3.79291L5.71968 6.38095C5.42677 6.67386 5.42677 7.14871 5.71968 7.44159Z" fill="currentcolor"/>
</svg>
