<svg width="16" height="16" viewBox="0 0 16 16" fill="none" xmlns="http://www.w3.org/2000/svg">
<path d="M8.91665 11.3332H9.41665C9.48295 11.3332 9.54654 11.3068 9.59342 11.2599C9.64031 11.2131 9.66665 11.1495 9.66665 11.0832V6.58317C9.66665 6.51687 9.64031 6.45328 9.59342 6.40639C9.54654 6.35951 9.48295 6.33317 9.41665 6.33317H8.91665C8.85034 6.33317 8.78675 6.35951 8.73987 6.40639C8.69299 6.45328 8.66665 6.51687 8.66665 6.58317V11.0832C8.66665 11.1495 8.69299 11.2131 8.73987 11.2599C8.78675 11.3068 8.85034 11.3332 8.91665 11.3332ZM12.3333 4.33317H10.6164L9.9081 3.15192C9.81921 3.0038 9.69346 2.88123 9.54311 2.79616C9.39276 2.71109 9.22294 2.66642 9.05019 2.6665H6.94977C6.77709 2.66649 6.60735 2.7112 6.45708 2.79626C6.30681 2.88133 6.18113 3.00386 6.09227 3.15192L5.38352 4.33317H3.66665C3.57824 4.33317 3.49346 4.36829 3.43094 4.4308C3.36843 4.49331 3.33331 4.5781 3.33331 4.6665V4.99984C3.33331 5.08824 3.36843 5.17303 3.43094 5.23554C3.49346 5.29805 3.57824 5.33317 3.66665 5.33317H3.99998V12.3332C3.99998 12.5984 4.10534 12.8527 4.29287 13.0403C4.48041 13.2278 4.73476 13.3332 4.99998 13.3332H11C11.2652 13.3332 11.5196 13.2278 11.7071 13.0403C11.8946 12.8527 12 12.5984 12 12.3332V5.33317H12.3333C12.4217 5.33317 12.5065 5.29805 12.569 5.23554C12.6315 5.17303 12.6666 5.08824 12.6666 4.99984V4.6665C12.6666 4.5781 12.6315 4.49331 12.569 4.4308C12.5065 4.36829 12.4217 4.33317 12.3333 4.33317ZM6.91331 3.72713C6.92445 3.70859 6.94022 3.69325 6.95906 3.68262C6.9779 3.672 6.99918 3.66644 7.02081 3.6665H8.97915C9.00074 3.66648 9.02198 3.67205 9.04078 3.68268C9.05959 3.6933 9.07532 3.70862 9.08644 3.72713L9.45019 4.33317H6.54977L6.91331 3.72713ZM11 12.3332H4.99998V5.33317H11V12.3332ZM6.58331 11.3332H7.08331C7.14962 11.3332 7.21321 11.3068 7.26009 11.2599C7.30697 11.2131 7.33331 11.1495 7.33331 11.0832V6.58317C7.33331 6.51687 7.30697 6.45328 7.26009 6.40639C7.21321 6.35951 7.14962 6.33317 7.08331 6.33317H6.58331C6.51701 6.33317 6.45342 6.35951 6.40654 6.40639C6.35965 6.45328 6.33331 6.51687 6.33331 6.58317V11.0832C6.33331 11.1495 6.35965 11.2131 6.40654 11.2599C6.45342 11.3068 6.51701 11.3332 6.58331 11.3332Z" fill="currentColor"/>
</svg>
