<svg width="35" height="22" viewBox="0 0 35 22" fill="none" xmlns="http://www.w3.org/2000/svg">
<path d="M6.96491 5.06196C12.5088 -0.356895 21.5 -0.356895 27.0439 5.06196L27.7105 5.70977C27.9912 5.98115 27.9912 6.41886 27.7105 6.69024L25.4298 8.92256C25.2895 9.05388 25.0702 9.05388 24.9298 8.92256L24.0088 8.02088C20.1404 4.23906 13.8684 4.23906 10 8.02088L9.01754 8.98384C8.87719 9.11516 8.6579 9.11516 8.51754 8.98384L6.22807 6.76028C5.94737 6.48889 5.94737 6.05118 6.22807 5.7798L6.96491 5.06196ZM31.7632 9.67543L33.7982 11.6626C34.0789 11.934 34.0789 12.3717 33.7982 12.6431L24.6316 21.5987C24.3509 21.87 23.9035 21.87 23.6316 21.5987L17.1316 15.2431C17.0614 15.1731 16.9474 15.1731 16.8772 15.2431L10.3772 21.5987C10.0965 21.87 9.64912 21.87 9.37719 21.5987L0.210526 12.6431C-0.0701754 12.3717 -0.0701754 11.934 0.210526 11.6626L2.24561 9.67543C2.52632 9.40405 2.97368 9.40405 3.24561 9.67543L9.74561 16.031C9.81579 16.101 9.92982 16.101 10 16.031L16.5 9.67543C16.7807 9.40405 17.2281 9.40405 17.5 9.67543L24 16.031C24.0702 16.101 24.1842 16.101 24.2544 16.031L30.7544 9.67543C31.0351 9.40405 31.4825 9.40405 31.7632 9.67543Z" fill="#3B99FC"/>
</svg>
