<svg width="18" height="16" viewBox="0 0 18 16" fill="none" xmlns="http://www.w3.org/2000/svg">
<path d="M15.1435 3.17857V2.64286C15.1435 1.45926 14.1632 0.5 12.9537 0.5H3.9513C2.1372 0.5 0.666626 1.93906 0.666626 3.71429V12.2857C0.666626 14.0609 2.1372 15.5 3.9513 15.5H15.1435C16.353 15.5 17.3333 14.5407 17.3333 13.3571V5.32143C17.3333 4.13783 16.353 3.17857 15.1435 3.17857ZM15.691 13.3571C15.691 13.6525 15.4453 13.8929 15.1435 13.8929H3.9513C3.04562 13.8929 2.30896 13.172 2.30896 12.2857V3.71429C2.30896 2.82801 3.04562 2.10714 3.9513 2.10714H12.9537C13.2555 2.10714 13.5012 2.34754 13.5012 2.64286V3.71429H4.49874C4.19628 3.71429 3.9513 3.95402 3.9513 4.25C3.9513 4.54598 4.19628 4.78571 4.49874 4.78571H15.1435C15.4453 4.78571 15.691 5.02612 15.691 5.32143V13.3571ZM12.9537 8C12.3491 8 11.8588 8.4798 11.8588 9.07143C11.8588 9.66306 12.3491 10.1429 12.9537 10.1429C13.5583 10.1429 14.0486 9.66306 14.0486 9.07143C14.0486 8.4798 13.5583 8 12.9537 8Z" fill="#65647E"/>
</svg>
